<?xml version="1.0" encoding="UTF-8" standalone="no"?>
<!-- Created with Inkscape (http://www.inkscape.org/) -->

<svg
   width="400mm"
   height="200mm"
   viewBox="0 0 400 200"
   version="1.1"
   id="svg10187"
   inkscape:version="1.1 (c68e22c387, 2021-05-23)"
   sodipodi:docname="lid_plate_msb.svg"
   xmlns:inkscape="http://www.inkscape.org/namespaces/inkscape"
   xmlns:sodipodi="http://sodipodi.sourceforge.net/DTD/sodipodi-0.dtd"
   xmlns="http://www.w3.org/2000/svg"
   xmlns:svg="http://www.w3.org/2000/svg">
  <sodipodi:namedview
     id="namedview10189"
     pagecolor="#ffffff"
     bordercolor="#666666"
     borderopacity="1.0"
     inkscape:pageshadow="2"
     inkscape:pageopacity="0.0"
     inkscape:pagecheckerboard="0"
     inkscape:document-units="mm"
     showgrid="false"
     inkscape:zoom="1.4142136"
     inkscape:cx="271.88256"
     inkscape:cy="240.76986"
     inkscape:window-width="2560"
     inkscape:window-height="1377"
     inkscape:window-x="-8"
     inkscape:window-y="-8"
     inkscape:window-maximized="1"
     inkscape:current-layer="g11870"
     inkscape:snap-bbox="true"
     inkscape:object-paths="true"
     inkscape:snap-intersection-paths="true"
     inkscape:snap-smooth-nodes="true"
     inkscape:snap-midpoints="true"
     inkscape:snap-object-midpoints="true"
     inkscape:snap-center="true"
     inkscape:snap-text-baseline="true"
     inkscape:bbox-paths="true"
     inkscape:bbox-nodes="true"
     inkscape:snap-bbox-edge-midpoints="true"
     inkscape:snap-bbox-midpoints="true"
     showguides="true"
     inkscape:guide-bbox="true">
    <sodipodi:guide
       position="126.96237,172.50469"
       orientation="0,-1"
       id="guide974" />
    <sodipodi:guide
       position="125.79355,172.63713"
       orientation="1,0"
       id="guide976" />
    <sodipodi:guide
       position="133.79455,172.50493"
       orientation="1,0"
       id="guide978" />
    <sodipodi:guide
       position="124.60136,173.69707"
       orientation="0,-45.09343"
       id="guide1480" />
    <sodipodi:guide
       position="115.99868,166.75888"
       orientation="0,-1"
       id="guide1597" />
    <sodipodi:guide
       position="115.79231,101.303"
       orientation="0,-1"
       id="guide1679" />
    <sodipodi:guide
       position="115.9246,127.303"
       orientation="0,-1"
       id="guide1796" />
  </sodipodi:namedview>
  <defs
     id="defs10184">
    <inkscape:perspective
       sodipodi:type="inkscape:persp3d"
       inkscape:vp_x="0 : 100 : 1"
       inkscape:vp_y="0 : 1000 : 0"
       inkscape:vp_z="400 : 100 : 1"
       inkscape:persp3d-origin="200 : 66.666667 : 1"
       id="perspective1398" />
    <clipPath
       clipPathUnits="userSpaceOnUse"
       id="clipPath10262">
      <path
         d="M 0,0 V 1262.88 H 1785.78 V 0 Z"
         id="path10260" />
    </clipPath>
    <clipPath
       clipPathUnits="userSpaceOnUse"
       id="clipPath10270">
      <path
         d="M 0,0 V 1262.88 H 1785.78 V 0 Z"
         id="path10268" />
    </clipPath>
    <clipPath
       clipPathUnits="userSpaceOnUse"
       id="clipPath10362">
      <path
         d="M 0,0 V 1262.88 H 1785.78 V 0 Z"
         id="path10360" />
    </clipPath>
    <clipPath
       clipPathUnits="userSpaceOnUse"
       id="clipPath10458">
      <path
         d="M 0,0 V 1262.88 H 1785.78 V 0 Z"
         id="path10456" />
    </clipPath>
  </defs>
  <g
     inkscape:label="Ebene 1"
     inkscape:groupmode="layer"
     id="layer1">
    <g
       id="g11870"
       transform="translate(-68.737371,-40.120819)">
      <g
         id="g10272"
         transform="matrix(0.19399258,0.2946507,0.2946507,-0.19399258,287.01865,86.856403)">
        <path
           d="m 11.25,0 c 0,3.78368 -1.902,7.31393 -5.06185,9.39517"
           style="fill:none;stroke:#000000;stroke-width:1.44;stroke-linecap:round;stroke-linejoin:round;stroke-miterlimit:10;stroke-dasharray:none;stroke-opacity:1"
           id="path10274" />
      </g>
      <path
         d="m 290.98742,117.90806 c 0,-1.33479 -0.67098,-2.58019 -1.7857,-3.31441"
         style="fill:none;stroke:#000000;stroke-width:0.508;stroke-linecap:round;stroke-linejoin:round;stroke-miterlimit:10;stroke-dasharray:none;stroke-opacity:1"
         id="path10276" />
      <path
         d="M 290.98742,86.888314 V 45.486319"
         style="fill:none;stroke:#000000;stroke-width:0.508;stroke-linecap:round;stroke-linejoin:round;stroke-miterlimit:10;stroke-dasharray:none;stroke-opacity:1"
         id="path10278" />
      <path
         d="M 290.98742,159.27832 V 117.87631"
         style="fill:none;stroke:#000000;stroke-width:0.508;stroke-linecap:round;stroke-linejoin:round;stroke-miterlimit:10;stroke-dasharray:none;stroke-opacity:1"
         id="path10280" />
      <g
         id="g10282"
         transform="matrix(-0.19399258,-0.2946507,-0.2946507,0.19399258,290.32076,91.873049)">
        <path
           d="m 5.67,0 c 0,1.90697 -0.95861,3.68622 -2.55117,4.73517"
           style="fill:none;stroke:#000000;stroke-width:1.44;stroke-linecap:round;stroke-linejoin:round;stroke-miterlimit:10;stroke-dasharray:none;stroke-opacity:1"
           id="path10284" />
      </g>
      <g
         id="g10286"
         transform="matrix(-0.35277777,-3.5280376e-5,-3.5280376e-5,0.35277777,290.32068,112.89157)">
        <path
           d="m 5.67,0 c 0,1.90697 -0.95861,3.68622 -2.55117,4.73517"
           style="fill:none;stroke:#000000;stroke-width:1.44;stroke-linecap:round;stroke-linejoin:round;stroke-miterlimit:10;stroke-dasharray:none;stroke-opacity:1"
           id="path10288" />
      </g>
      <path
         d="M 288.32042,112.85981 V 91.904804"
         style="fill:none;stroke:#000000;stroke-width:0.508;stroke-linecap:round;stroke-linejoin:round;stroke-miterlimit:10;stroke-dasharray:none;stroke-opacity:1"
         id="path10290" />
      <g
         id="g10292"
         transform="matrix(-0.35277777,-1.8967772e-5,-3.5280376e-5,0.18966375,184.52968,112.31445)"
         style="stroke-width:1.36382">
        <path
           d="M 1.35,0 C 1.35,0.74556 0.74562,1.34996 6e-5,1.35 -0.74549,1.35004 -1.34993,0.74569 -1.35,1.3e-4"
           style="fill:none;stroke:#000000;stroke-width:1.9639;stroke-linecap:round;stroke-linejoin:round;stroke-miterlimit:10;stroke-dasharray:none;stroke-opacity:1"
           id="path10294" />
      </g>
      <path
         d="M 184.05342,112.31442 V 73.873373"
         style="fill:none;stroke:#000000;stroke-width:0.508;stroke-linecap:round;stroke-linejoin:round;stroke-miterlimit:10;stroke-dasharray:none;stroke-opacity:1"
         id="path10296" />
      <path
         d="m 185.00592,73.873395 c 0,-0.141401 -0.2132,-0.256042 -0.47621,-0.256042 -0.26304,-1.1e-5 -0.47627,0.114616 -0.47629,0.25602"
         style="fill:none;stroke:#000000;stroke-width:0.508;stroke-linecap:round;stroke-linejoin:round;stroke-miterlimit:10;stroke-dasharray:none;stroke-opacity:1"
         id="path10298" />
      <path
         d="M 185.00592,73.890471 V 112.33152"
         style="fill:none;stroke:#000000;stroke-width:0.508;stroke-linecap:round;stroke-linejoin:round;stroke-miterlimit:10;stroke-dasharray:none;stroke-opacity:1"
         id="path10300" />
      <g
         id="g10302"
         transform="matrix(-0.35277777,-3.5280376e-5,-3.5280376e-5,0.35277777,291.01918,42.40658)">
        <path
           d="M 8.73,0 C 8.73,4.82112 4.82196,8.72954 8.4e-4,8.73"
           style="fill:none;stroke:#000000;stroke-width:1.44;stroke-linecap:round;stroke-linejoin:round;stroke-miterlimit:10;stroke-dasharray:none;stroke-opacity:1"
           id="path10304" />
      </g>
      <path
         d="M 287.93941,42.374819 H 74.13493"
         style="fill:none;stroke:#000000;stroke-width:0.508;stroke-linecap:round;stroke-linejoin:round;stroke-miterlimit:10;stroke-dasharray:none;stroke-opacity:1"
         id="path10306" />
      <g
         id="g10308"
         transform="matrix(-3.5280376e-5,0.35277777,0.35277777,3.5280376e-5,70.991679,42.406574)">
        <path
           d="M 8.73,0 C 8.73,4.82112 4.82196,8.72954 8.4e-4,8.73"
           style="fill:none;stroke:#000000;stroke-width:1.44;stroke-linecap:round;stroke-linejoin:round;stroke-miterlimit:10;stroke-dasharray:none;stroke-opacity:1"
           id="path10310" />
      </g>
      <path
         d="M 71.023427,45.486319 V 159.27832"
         style="fill:none;stroke:#000000;stroke-width:0.508;stroke-linecap:round;stroke-linejoin:round;stroke-miterlimit:10;stroke-dasharray:none;stroke-opacity:1"
         id="path10312" />
      <path
         d="m 74.071427,162.35806 c 0,-1.70078 -1.37867,-3.07958 -3.079454,-3.07974"
         style="fill:none;stroke:#000000;stroke-width:0.508;stroke-linecap:round;stroke-linejoin:round;stroke-miterlimit:10;stroke-dasharray:none;stroke-opacity:1"
         id="path10314" />
      <path
         d="M 74.13493,162.38981 H 287.93941"
         style="fill:none;stroke:#000000;stroke-width:0.508;stroke-linecap:round;stroke-linejoin:round;stroke-miterlimit:10;stroke-dasharray:none;stroke-opacity:1"
         id="path10316" />
      <g
         id="g10318"
         transform="matrix(3.5280376e-5,-0.35277777,-0.35277777,-3.5280376e-5,291.01917,162.35806)">
        <path
           d="M 8.73,0 C 8.73,4.82112 4.82196,8.72954 8.4e-4,8.73"
           style="fill:none;stroke:#000000;stroke-width:1.44;stroke-linecap:round;stroke-linejoin:round;stroke-miterlimit:10;stroke-dasharray:none;stroke-opacity:1"
           id="path10320" />
      </g>
      <path
         d="m 192.1463,92.126927 c -5e-5,0.6585 0.53369,1.19235 1.1922,1.192428 0.6585,5.5e-5 1.19234,-0.533718 1.19242,-1.192193 6e-5,-0.6585 -0.53369,-1.192376 -1.19219,-1.192428 -0.6585,-5.1e-5 -1.19236,0.533693 -1.19243,1.192193"
         style="fill:none;stroke:#000000;stroke-width:0.615385;stroke-linecap:round;stroke-linejoin:round;stroke-miterlimit:10;stroke-dasharray:none;stroke-opacity:1"
         id="path10322" />
      <path
         d="m 202.53192,92.126898 c -5e-5,0.658497 0.5337,1.192345 1.19219,1.192423 0.6585,5.5e-5 1.19234,-0.533716 1.19243,-1.192188 5e-5,-0.658498 -0.53372,-1.192371 -1.19219,-1.192423 -0.6585,-5.1e-5 -1.19237,0.53369 -1.19243,1.192188"
         style="fill:none;stroke:#000000;stroke-width:0.615382;stroke-linecap:round;stroke-linejoin:round;stroke-miterlimit:10;stroke-dasharray:none;stroke-opacity:1"
         id="path10324" />
      <path
         d="m 192.1463,67.615941 c -5e-5,0.658474 0.53369,1.19235 1.1922,1.192401 0.6585,8.1e-5 1.19234,-0.533692 1.19242,-1.192193 6e-5,-0.658473 -0.53369,-1.19235 -1.19219,-1.192401 -0.6585,-8.1e-5 -1.19236,0.533693 -1.19243,1.192193"
         style="fill:none;stroke:#000000;stroke-width:0.615385;stroke-linecap:round;stroke-linejoin:round;stroke-miterlimit:10;stroke-dasharray:none;stroke-opacity:1"
         id="path10326" />
      <path
         d="m 202.53192,67.615884 c -5e-5,0.658471 0.5337,1.192345 1.19219,1.192396 0.6585,8.1e-5 1.19234,-0.53369 1.19243,-1.192188 5e-5,-0.658471 -0.53372,-1.192345 -1.19219,-1.192396 -0.6585,-8.1e-5 -1.19237,0.53369 -1.19243,1.192188"
         style="fill:none;stroke:#000000;stroke-width:0.615382;stroke-linecap:round;stroke-linejoin:round;stroke-miterlimit:10;stroke-dasharray:none;stroke-opacity:1"
         id="path10328" />
    </g>
  </g>
</svg>
