<?xml version="1.0" encoding="UTF-8" standalone="no"?>
<!-- Created with Inkscape (http://www.inkscape.org/) -->

<svg
   width="400mm"
   height="200mm"
   viewBox="0 0 400 200"
   version="1.1"
   id="svg10187"
   inkscape:version="1.1.1 (3bf5ae0d25, 2021-09-20)"
   sodipodi:docname="platte_msb_v1.svg"
   xmlns:inkscape="http://www.inkscape.org/namespaces/inkscape"
   xmlns:sodipodi="http://sodipodi.sourceforge.net/DTD/sodipodi-0.dtd"
   xmlns="http://www.w3.org/2000/svg"
   xmlns:svg="http://www.w3.org/2000/svg">
  <sodipodi:namedview
     id="namedview10189"
     pagecolor="#ffffff"
     bordercolor="#666666"
     borderopacity="1.0"
     inkscape:pageshadow="2"
     inkscape:pageopacity="0.0"
     inkscape:pagecheckerboard="0"
     inkscape:document-units="mm"
     showgrid="false"
     inkscape:zoom="0.58083614"
     inkscape:cx="340.02705"
     inkscape:cy="408.89329"
     inkscape:window-width="1600"
     inkscape:window-height="837"
     inkscape:window-x="-8"
     inkscape:window-y="-8"
     inkscape:window-maximized="1"
     inkscape:current-layer="layer1" />
  <defs
     id="defs10184">
    <clipPath
       clipPathUnits="userSpaceOnUse"
       id="clipPath10262">
      <path
         d="M 0,0 V 1262.88 H 1785.78 V 0 Z"
         id="path10260" />
    </clipPath>
    <clipPath
       clipPathUnits="userSpaceOnUse"
       id="clipPath10270">
      <path
         d="M 0,0 V 1262.88 H 1785.78 V 0 Z"
         id="path10268" />
    </clipPath>
    <clipPath
       clipPathUnits="userSpaceOnUse"
       id="clipPath10362">
      <path
         d="M 0,0 V 1262.88 H 1785.78 V 0 Z"
         id="path10360" />
    </clipPath>
    <clipPath
       clipPathUnits="userSpaceOnUse"
       id="clipPath10458">
      <path
         d="M 0,0 V 1262.88 H 1785.78 V 0 Z"
         id="path10456" />
    </clipPath>
  </defs>
  <g
     inkscape:label="Ebene 1"
     inkscape:groupmode="layer"
     id="layer1">
    <g
       id="g11870"
       transform="translate(-68.737371,-40.120819)">
      <g
         id="g10272"
         transform="matrix(0.19399258,0.2946507,0.2946507,-0.19399258,287.01865,86.856403)">
        <path
           d="m 11.25,0 c 0,3.78368 -1.902,7.31393 -5.06185,9.39517"
           style="fill:none;stroke:#000000;stroke-width:1.44;stroke-linecap:round;stroke-linejoin:round;stroke-miterlimit:10;stroke-dasharray:none;stroke-opacity:1"
           id="path10274" />
      </g>
      <path
         d="m 290.98742,117.90806 c 0,-1.33479 -0.67098,-2.58019 -1.7857,-3.31441"
         style="fill:none;stroke:#000000;stroke-width:0.508;stroke-linecap:round;stroke-linejoin:round;stroke-miterlimit:10;stroke-dasharray:none;stroke-opacity:1"
         id="path10276" />
      <path
         d="M 290.98742,86.888314 V 45.486319"
         style="fill:none;stroke:#000000;stroke-width:0.508;stroke-linecap:round;stroke-linejoin:round;stroke-miterlimit:10;stroke-dasharray:none;stroke-opacity:1"
         id="path10278" />
      <path
         d="M 290.98742,159.27832 V 117.87631"
         style="fill:none;stroke:#000000;stroke-width:0.508;stroke-linecap:round;stroke-linejoin:round;stroke-miterlimit:10;stroke-dasharray:none;stroke-opacity:1"
         id="path10280" />
      <g
         id="g10282"
         transform="matrix(-0.19399258,-0.2946507,-0.2946507,0.19399258,290.32076,91.873049)">
        <path
           d="m 5.67,0 c 0,1.90697 -0.95861,3.68622 -2.55117,4.73517"
           style="fill:none;stroke:#000000;stroke-width:1.44;stroke-linecap:round;stroke-linejoin:round;stroke-miterlimit:10;stroke-dasharray:none;stroke-opacity:1"
           id="path10284" />
      </g>
      <g
         id="g10286"
         transform="matrix(-0.35277777,-3.5280376e-5,-3.5280376e-5,0.35277777,290.32068,112.89157)">
        <path
           d="m 5.67,0 c 0,1.90697 -0.95861,3.68622 -2.55117,4.73517"
           style="fill:none;stroke:#000000;stroke-width:1.44;stroke-linecap:round;stroke-linejoin:round;stroke-miterlimit:10;stroke-dasharray:none;stroke-opacity:1"
           id="path10288" />
      </g>
      <path
         d="M 288.32042,112.85981 V 91.904804"
         style="fill:none;stroke:#000000;stroke-width:0.508;stroke-linecap:round;stroke-linejoin:round;stroke-miterlimit:10;stroke-dasharray:none;stroke-opacity:1"
         id="path10290" />
      <g
         id="g10292"
         transform="matrix(-0.35277777,-3.5280376e-5,-3.5280376e-5,0.35277777,184.52968,138.10106)">
        <path
           d="M 1.35,0 C 1.35,0.74556 0.74562,1.34996 6e-5,1.35 -0.74549,1.35004 -1.34993,0.74569 -1.35,1.3e-4"
           style="fill:none;stroke:#000000;stroke-width:1.44;stroke-linecap:round;stroke-linejoin:round;stroke-miterlimit:10;stroke-dasharray:none;stroke-opacity:1"
           id="path10294" />
      </g>
      <path
         d="M 183.98992,138.13282 V 66.631822"
         style="fill:none;stroke:#000000;stroke-width:0.508;stroke-linecap:round;stroke-linejoin:round;stroke-miterlimit:10;stroke-dasharray:none;stroke-opacity:1"
         id="path10296" />
      <path
         d="m 185.00592,66.600061 c 0,-0.26301 -0.2132,-0.476243 -0.47621,-0.476243 -0.26304,-2.1e-5 -0.47627,0.213187 -0.47629,0.476201"
         style="fill:none;stroke:#000000;stroke-width:0.508;stroke-linecap:round;stroke-linejoin:round;stroke-miterlimit:10;stroke-dasharray:none;stroke-opacity:1"
         id="path10298" />
      <path
         d="M 185.00592,66.631822 V 138.13282"
         style="fill:none;stroke:#000000;stroke-width:0.508;stroke-linecap:round;stroke-linejoin:round;stroke-miterlimit:10;stroke-dasharray:none;stroke-opacity:1"
         id="path10300" />
      <g
         id="g10302"
         transform="matrix(-0.35277777,-3.5280376e-5,-3.5280376e-5,0.35277777,291.01918,42.40658)">
        <path
           d="M 8.73,0 C 8.73,4.82112 4.82196,8.72954 8.4e-4,8.73"
           style="fill:none;stroke:#000000;stroke-width:1.44;stroke-linecap:round;stroke-linejoin:round;stroke-miterlimit:10;stroke-dasharray:none;stroke-opacity:1"
           id="path10304" />
      </g>
      <path
         d="M 287.93941,42.374819 H 74.13493"
         style="fill:none;stroke:#000000;stroke-width:0.508;stroke-linecap:round;stroke-linejoin:round;stroke-miterlimit:10;stroke-dasharray:none;stroke-opacity:1"
         id="path10306" />
      <g
         id="g10308"
         transform="matrix(-3.5280376e-5,0.35277777,0.35277777,3.5280376e-5,70.991679,42.406574)">
        <path
           d="M 8.73,0 C 8.73,4.82112 4.82196,8.72954 8.4e-4,8.73"
           style="fill:none;stroke:#000000;stroke-width:1.44;stroke-linecap:round;stroke-linejoin:round;stroke-miterlimit:10;stroke-dasharray:none;stroke-opacity:1"
           id="path10310" />
      </g>
      <path
         d="M 71.023427,45.486319 V 159.27832"
         style="fill:none;stroke:#000000;stroke-width:0.508;stroke-linecap:round;stroke-linejoin:round;stroke-miterlimit:10;stroke-dasharray:none;stroke-opacity:1"
         id="path10312" />
      <path
         d="m 74.071427,162.35806 c 0,-1.70078 -1.37867,-3.07958 -3.079454,-3.07974"
         style="fill:none;stroke:#000000;stroke-width:0.508;stroke-linecap:round;stroke-linejoin:round;stroke-miterlimit:10;stroke-dasharray:none;stroke-opacity:1"
         id="path10314" />
      <path
         d="M 74.13493,162.38981 H 287.93941"
         style="fill:none;stroke:#000000;stroke-width:0.508;stroke-linecap:round;stroke-linejoin:round;stroke-miterlimit:10;stroke-dasharray:none;stroke-opacity:1"
         id="path10316" />
      <g
         id="g10318"
         transform="matrix(3.5280376e-5,-0.35277777,-0.35277777,-3.5280376e-5,291.01917,162.35806)">
        <path
           d="M 8.73,0 C 8.73,4.82112 4.82196,8.72954 8.4e-4,8.73"
           style="fill:none;stroke:#000000;stroke-width:1.44;stroke-linecap:round;stroke-linejoin:round;stroke-miterlimit:10;stroke-dasharray:none;stroke-opacity:1"
           id="path10320" />
      </g>
      <path
         d="m 192.56242,92.126969 c -4e-5,0.543592 0.44056,0.984285 0.98416,0.984349 0.54359,4.6e-5 0.98428,-0.440584 0.98434,-0.984155 5e-5,-0.543592 -0.44056,-0.984306 -0.98415,-0.984349 -0.54359,-4.2e-5 -0.98429,0.440563 -0.98435,0.984155"
         style="fill:none;stroke:#000000;stroke-width:0.508;stroke-linecap:round;stroke-linejoin:round;stroke-miterlimit:10;stroke-dasharray:none;stroke-opacity:1"
         id="path10322" />
      <path
         d="m 202.53192,92.126969 c -4e-5,0.543592 0.44057,0.984285 0.98416,0.984349 0.54359,4.6e-5 0.98428,-0.440584 0.98435,-0.984155 4e-5,-0.543592 -0.44059,-0.984306 -0.98416,-0.984349 -0.54359,-4.2e-5 -0.9843,0.440563 -0.98435,0.984155"
         style="fill:none;stroke:#000000;stroke-width:0.508;stroke-linecap:round;stroke-linejoin:round;stroke-miterlimit:10;stroke-dasharray:none;stroke-opacity:1"
         id="path10324" />
      <path
         d="m 192.56242,67.615977 c -4e-5,0.54357 0.44056,0.984285 0.98416,0.984327 0.54359,6.7e-5 0.98428,-0.440563 0.98434,-0.984155 5e-5,-0.54357 -0.44056,-0.984285 -0.98415,-0.984327 -0.54359,-6.7e-5 -0.98429,0.440563 -0.98435,0.984155"
         style="fill:none;stroke:#000000;stroke-width:0.508;stroke-linecap:round;stroke-linejoin:round;stroke-miterlimit:10;stroke-dasharray:none;stroke-opacity:1"
         id="path10326" />
      <path
         d="m 202.53192,67.615977 c -4e-5,0.54357 0.44057,0.984285 0.98416,0.984327 0.54359,6.7e-5 0.98428,-0.440563 0.98435,-0.984155 4e-5,-0.54357 -0.44059,-0.984285 -0.98416,-0.984327 -0.54359,-6.7e-5 -0.9843,0.440563 -0.98435,0.984155"
         style="fill:none;stroke:#000000;stroke-width:0.508;stroke-linecap:round;stroke-linejoin:round;stroke-miterlimit:10;stroke-dasharray:none;stroke-opacity:1"
         id="path10328" />
    </g>
  </g>
</svg>
