<?xml version="1.0" encoding="UTF-8" standalone="no"?>
<!-- Created with Inkscape (http://www.inkscape.org/) -->

<svg
   version="1.1"
   id="svg2"
   xml:space="preserve"
   width="1000"
   height="700"
   viewBox="0 0 1000 699.99997"
   sodipodi:docname="4msb_lid_plate_for_laser_cutter.svg"
   inkscape:version="1.1 (c68e22c387, 2021-05-23)"
   xmlns:inkscape="http://www.inkscape.org/namespaces/inkscape"
   xmlns:sodipodi="http://sodipodi.sourceforge.net/DTD/sodipodi-0.dtd"
   xmlns="http://www.w3.org/2000/svg"
   xmlns:svg="http://www.w3.org/2000/svg"><defs
     id="defs6"><clipPath
       clipPathUnits="userSpaceOnUse"
       id="clipPath16"><path
         d="m 0,6938 h 11076 v 7092 H 0 V 6938"
         id="path14" /></clipPath></defs><sodipodi:namedview
     id="namedview4"
     pagecolor="#ffffff"
     bordercolor="#666666"
     borderopacity="1.0"
     inkscape:pageshadow="2"
     inkscape:pageopacity="0.0"
     inkscape:pagecheckerboard="0"
     showgrid="false"
     width="1000px"
     inkscape:zoom="2.3230402"
     inkscape:cx="208.5629"
     inkscape:cy="441.87784"
     inkscape:window-width="1600"
     inkscape:window-height="837"
     inkscape:window-x="-8"
     inkscape:window-y="-8"
     inkscape:window-maximized="1"
     inkscape:current-layer="g8" /><g
     id="g8"
     inkscape:groupmode="layer"
     inkscape:label="msb_lid_plate_for_laser_cutter"
     transform="matrix(0.08,0,0,-0.08,0,1122.6667)"><path
       d="m 109.5,13988 c -26.23353,0 -47.5,-21.267 -47.5,-47.5"
       style="fill:none;stroke:#000000;stroke-width:2.36220475;stroke-linecap:round;stroke-linejoin:round;stroke-miterlimit:10;stroke-dasharray:none;stroke-opacity:1"
       id="path18" /><path
       d="m 62,13940 v -352"
       style="fill:none;stroke:#000000;stroke-width:2.36220475;stroke-linecap:round;stroke-linejoin:round;stroke-miterlimit:10;stroke-dasharray:none;stroke-opacity:1"
       id="path20" /><path
       d="m 109.5,13207 c -26.23353,0 -47.5,-21.267 -47.5,-47.5"
       style="fill:none;stroke:#000000;stroke-width:2.36220475;stroke-linecap:round;stroke-linejoin:round;stroke-miterlimit:10;stroke-dasharray:none;stroke-opacity:1"
       id="path22" /><path
       d="M 62,13159 V 11767"
       style="fill:none;stroke:#000000;stroke-width:2.36220475;stroke-linecap:round;stroke-linejoin:round;stroke-miterlimit:10;stroke-dasharray:none;stroke-opacity:1"
       id="path24" /><g
       id="g26"
       transform="rotate(90,-6739.5,6849)"
       style="stroke-width:2.36220475;stroke-miterlimit:10;stroke-dasharray:none"><path
         d="M 0,47.5 C -26.23353,47.5 -47.5,26.23353 -47.5,0"
         style="fill:none;stroke:#000000;stroke-width:2.36220475;stroke-linecap:round;stroke-linejoin:round;stroke-miterlimit:10;stroke-dasharray:none;stroke-opacity:1"
         id="path28" /></g><path
       d="M 109,13541 H 296"
       style="fill:none;stroke:#000000;stroke-width:2.36220475;stroke-linecap:round;stroke-linejoin:round;stroke-miterlimit:10;stroke-dasharray:none;stroke-opacity:1"
       id="path30" /><g
       id="g32"
       transform="rotate(90,-5829,5938.5)"
       style="stroke-width:2.36220475;stroke-miterlimit:10;stroke-dasharray:none"><path
         d="M 0,47.5 C -26.23353,47.5 -47.5,26.23353 -47.5,0"
         style="fill:none;stroke:#000000;stroke-width:2.36220475;stroke-linecap:round;stroke-linejoin:round;stroke-miterlimit:10;stroke-dasharray:none;stroke-opacity:1"
         id="path34" /></g><path
       d="M 109,11720 H 865"
       style="fill:none;stroke:#000000;stroke-width:2.36220475;stroke-linecap:round;stroke-linejoin:round;stroke-miterlimit:10;stroke-dasharray:none;stroke-opacity:1"
       id="path36" /><path
       d="M 109.5,9359 C 83.26647,9359 62,9337.7334 62,9311.5"
       style="fill:none;stroke:#000000;stroke-width:2.36220475;stroke-linecap:round;stroke-linejoin:round;stroke-miterlimit:10;stroke-dasharray:none;stroke-opacity:1"
       id="path38" /><path
       d="M 62,9311 V 7919"
       style="fill:none;stroke:#000000;stroke-width:2.36220475;stroke-linecap:round;stroke-linejoin:round;stroke-miterlimit:10;stroke-dasharray:none;stroke-opacity:1"
       id="path40" /><path
       d="M 109.5,7537 C 83.26647,7537 62,7515.7334 62,7489.5"
       style="fill:none;stroke:#000000;stroke-width:2.36220475;stroke-linecap:round;stroke-linejoin:round;stroke-miterlimit:10;stroke-dasharray:none;stroke-opacity:1"
       id="path42" /><path
       d="M 62,7489 V 7137"
       style="fill:none;stroke:#000000;stroke-width:2.36220475;stroke-linecap:round;stroke-linejoin:round;stroke-miterlimit:10;stroke-dasharray:none;stroke-opacity:1"
       id="path44" /><g
       id="g46"
       transform="rotate(90,-3905,4014.5)"
       style="stroke-width:2.36220475;stroke-miterlimit:10;stroke-dasharray:none"><path
         d="M 0,47.5 C -26.23353,47.5 -47.5,26.23353 -47.5,0"
         style="fill:none;stroke:#000000;stroke-width:2.36220475;stroke-linecap:round;stroke-linejoin:round;stroke-miterlimit:10;stroke-dasharray:none;stroke-opacity:1"
         id="path48" /></g><path
       d="M 109,7872 H 296"
       style="fill:none;stroke:#000000;stroke-width:2.36220475;stroke-linecap:round;stroke-linejoin:round;stroke-miterlimit:10;stroke-dasharray:none;stroke-opacity:1"
       id="path50" /><g
       id="g52"
       transform="rotate(90,-3514,3623.5)"
       style="stroke-width:2.36220475;stroke-miterlimit:10;stroke-dasharray:none"><path
         d="M 0,47.5 C -26.23353,47.5 -47.5,26.23353 -47.5,0"
         style="fill:none;stroke:#000000;stroke-width:2.36220475;stroke-linecap:round;stroke-linejoin:round;stroke-miterlimit:10;stroke-dasharray:none;stroke-opacity:1"
         id="path54" /></g><path
       d="M 109,7090 H 10877"
       style="fill:none;stroke:#000000;stroke-width:2.36220475;stroke-linecap:round;stroke-linejoin:round;stroke-miterlimit:10;stroke-dasharray:none;stroke-opacity:1"
       id="path56" /><g
       id="g58"
       transform="rotate(-90,12409,1531.5)"
       style="stroke-width:2.36220475;stroke-miterlimit:10;stroke-dasharray:none"><path
         d="M 0,47.5 C -26.23353,47.5 -47.5,26.23353 -47.5,0"
         style="fill:none;stroke:#000000;stroke-width:2.36220475;stroke-linecap:round;stroke-linejoin:round;stroke-miterlimit:10;stroke-dasharray:none;stroke-opacity:1"
         id="path60" /></g><path
       d="m 10924,13588 v 352"
       style="fill:none;stroke:#000000;stroke-width:2.36220475;stroke-linecap:round;stroke-linejoin:round;stroke-miterlimit:10;stroke-dasharray:none;stroke-opacity:1"
       id="path62" /><g
       id="g64"
       transform="rotate(180,5438.75,6794.25)"
       style="stroke-width:2.36220475;stroke-miterlimit:10;stroke-dasharray:none"><path
         d="M 0,47.5 C -26.23353,47.5 -47.5,26.23353 -47.5,0"
         style="fill:none;stroke:#000000;stroke-width:2.36220475;stroke-linecap:round;stroke-linejoin:round;stroke-miterlimit:10;stroke-dasharray:none;stroke-opacity:1"
         id="path66" /></g><g
       id="g68"
       transform="rotate(-90,12018.5,1141)"
       style="stroke-width:2.36220475;stroke-miterlimit:10;stroke-dasharray:none"><path
         d="M 0,47.5 C -26.23353,47.5 -47.5,26.23353 -47.5,0"
         style="fill:none;stroke:#000000;stroke-width:2.36220475;stroke-linecap:round;stroke-linejoin:round;stroke-miterlimit:10;stroke-dasharray:none;stroke-opacity:1"
         id="path70" /></g><path
       d="m 10924,7919 v 5240"
       style="fill:none;stroke:#000000;stroke-width:2.36220475;stroke-linecap:round;stroke-linejoin:round;stroke-miterlimit:10;stroke-dasharray:none;stroke-opacity:1"
       id="path72" /><g
       id="g74"
       transform="rotate(180,5438.75,3959.75)"
       style="stroke-width:2.36220475;stroke-miterlimit:10;stroke-dasharray:none"><path
         d="M 0,47.5 C -26.23353,47.5 -47.5,26.23353 -47.5,0"
         style="fill:none;stroke:#000000;stroke-width:2.36220475;stroke-linecap:round;stroke-linejoin:round;stroke-miterlimit:10;stroke-dasharray:none;stroke-opacity:1"
         id="path76" /></g><g
       id="g78"
       transform="rotate(-90,9183.5,-1694)"
       style="stroke-width:2.36220475;stroke-miterlimit:10;stroke-dasharray:none"><path
         d="M 0,47.5 C -26.23353,47.5 -47.5,26.23353 -47.5,0"
         style="fill:none;stroke:#000000;stroke-width:2.36220475;stroke-linecap:round;stroke-linejoin:round;stroke-miterlimit:10;stroke-dasharray:none;stroke-opacity:1"
         id="path80" /></g><path
       d="m 10877,7536 h -187"
       style="fill:none;stroke:#000000;stroke-width:2.36220475;stroke-linecap:round;stroke-linejoin:round;stroke-miterlimit:10;stroke-dasharray:none;stroke-opacity:1"
       id="path82" /><g
       id="g84"
       transform="rotate(180,5438.75,3568.75)"
       style="stroke-width:2.36220475;stroke-miterlimit:10;stroke-dasharray:none"><path
         d="M 0,47.5 C -26.23353,47.5 -47.5,26.23353 -47.5,0"
         style="fill:none;stroke:#000000;stroke-width:2.36220475;stroke-linecap:round;stroke-linejoin:round;stroke-miterlimit:10;stroke-dasharray:none;stroke-opacity:1"
         id="path86" /></g><path
       d="m 4274,12169.5 c 0,-36.727 29.7729,-66.5 66.5,-66.5 36.727,0 66.5,29.773 66.5,66.5 0,36.727 -29.773,66.5 -66.5,66.5 -36.7271,0 -66.5,-29.773 -66.5,-66.5"
       style="fill:none;stroke:#000000;stroke-width:2.36220475;stroke-linecap:round;stroke-linejoin:round;stroke-miterlimit:10;stroke-dasharray:none;stroke-opacity:1"
       id="path88" /><path
       d="m 4766,11011.5 c 0,-36.727 29.7729,-66.5 66.5,-66.5 36.727,0 66.5,29.773 66.5,66.5 0,36.727 -29.773,66.5 -66.5,66.5 -36.7271,0 -66.5,-29.773 -66.5,-66.5"
       style="fill:none;stroke:#000000;stroke-width:2.36220475;stroke-linecap:round;stroke-linejoin:round;stroke-miterlimit:10;stroke-dasharray:none;stroke-opacity:1"
       id="path90" /><path
       d="m 4766,12169.5 c 0,-36.727 29.7729,-66.5 66.5,-66.5 36.727,0 66.5,29.773 66.5,66.5 0,36.727 -29.773,66.5 -66.5,66.5 -36.7271,0 -66.5,-29.773 -66.5,-66.5"
       style="fill:none;stroke:#000000;stroke-width:2.36220475;stroke-linecap:round;stroke-linejoin:round;stroke-miterlimit:10;stroke-dasharray:none;stroke-opacity:1"
       id="path92" /><path
       d="m 4274,11011.5 c 0,-36.727 29.7729,-66.5 66.5,-66.5 36.727,0 66.5,29.773 66.5,66.5 0,36.727 -29.773,66.5 -66.5,66.5 -36.7271,0 -66.5,-29.773 -66.5,-66.5"
       style="fill:none;stroke:#000000;stroke-width:2.36220475;stroke-linecap:round;stroke-linejoin:round;stroke-miterlimit:10;stroke-dasharray:none;stroke-opacity:1"
       id="path94" /><path
       d="M 5351,11956 V 10066"
       style="fill:none;stroke:#000000;stroke-width:2.36220475;stroke-linecap:round;stroke-linejoin:round;stroke-miterlimit:10;stroke-dasharray:none;stroke-opacity:1"
       id="path96" /><path
       d="m 5352,11956.5 c 0,26.233 -21.2666,47.5 -47.5,47.5 -26.2334,0 -47.5,-21.267 -47.5,-47.5"
       style="fill:none;stroke:#000000;stroke-width:2.36220475;stroke-linecap:round;stroke-linejoin:round;stroke-miterlimit:10;stroke-dasharray:none;stroke-opacity:1"
       id="path98" /><path
       d="m 5257,10066 v 1890"
       style="fill:none;stroke:#000000;stroke-width:2.36220475;stroke-linecap:round;stroke-linejoin:round;stroke-miterlimit:10;stroke-dasharray:none;stroke-opacity:1"
       id="path100" /><g
       id="g102"
       transform="rotate(180,2652.25,5033.25)"
       style="stroke-width:2.36220475;stroke-miterlimit:10;stroke-dasharray:none"><path
         d="M 47.5,0 C 47.5,26.23353 26.23353,47.5 0,47.5 -26.23353,47.5 -47.5,26.23353 -47.5,0"
         style="fill:none;stroke:#000000;stroke-width:2.36220475;stroke-linecap:round;stroke-linejoin:round;stroke-miterlimit:10;stroke-dasharray:none;stroke-opacity:1"
         id="path104" /></g><g
       id="g106"
       transform="rotate(-90,6222,5356.5)"
       style="stroke-width:2.36220475;stroke-miterlimit:10;stroke-dasharray:none"><path
         d="M 0,141.5 C -78.14829,141.5 -141.5,78.14829 -141.5,0"
         style="fill:none;stroke:#000000;stroke-width:2.36220475;stroke-linecap:round;stroke-linejoin:round;stroke-miterlimit:10;stroke-dasharray:none;stroke-opacity:1"
         id="path108" /></g><path
       d="M 296,13206 H 109"
       style="fill:none;stroke:#000000;stroke-width:2.36220475;stroke-linecap:round;stroke-linejoin:round;stroke-miterlimit:10;stroke-dasharray:none;stroke-opacity:1"
       id="path110" /><g
       id="g112"
       transform="rotate(-90,6835,6538.5)"
       style="stroke-width:2.36220475;stroke-miterlimit:10;stroke-dasharray:none"><path
         d="M 167.5,0 C 167.5,92.5077 92.5077,167.5 0,167.5 -92.5077,167.5 -167.5,92.5077 -167.5,0"
         style="fill:none;stroke:#000000;stroke-width:2.36220475;stroke-linecap:round;stroke-linejoin:round;stroke-miterlimit:10;stroke-dasharray:none;stroke-opacity:1"
         id="path114" /></g><path
       d="M 10877,13988 H 109"
       style="fill:none;stroke:#000000;stroke-width:2.36220475;stroke-linecap:round;stroke-linejoin:round;stroke-miterlimit:10;stroke-dasharray:none;stroke-opacity:1"
       id="path116" /><path
       d="m 10690,13541 h 187"
       style="fill:none;stroke:#000000;stroke-width:2.36220475;stroke-linecap:round;stroke-linejoin:round;stroke-miterlimit:10;stroke-dasharray:none;stroke-opacity:1"
       id="path118" /><g
       id="g120"
       transform="rotate(90,-1341.5,12032)"
       style="stroke-width:2.36220475;stroke-miterlimit:10;stroke-dasharray:none"><path
         d="M 167.5,0 C 167.5,92.5077 92.5077,167.5 0,167.5 -92.5077,167.5 -167.5,92.5077 -167.5,0"
         style="fill:none;stroke:#000000;stroke-width:2.36220475;stroke-linecap:round;stroke-linejoin:round;stroke-miterlimit:10;stroke-dasharray:none;stroke-opacity:1"
         id="path122" /></g><path
       d="m 10877,13206 h -187"
       style="fill:none;stroke:#000000;stroke-width:2.36220475;stroke-linecap:round;stroke-linejoin:round;stroke-miterlimit:10;stroke-dasharray:none;stroke-opacity:1"
       id="path124" /><path
       d="m 10690,7872 h 187"
       style="fill:none;stroke:#000000;stroke-width:2.36220475;stroke-linecap:round;stroke-linejoin:round;stroke-miterlimit:10;stroke-dasharray:none;stroke-opacity:1"
       id="path126" /><g
       id="g128"
       transform="rotate(90,1493,9197.5)"
       style="stroke-width:2.36220475;stroke-miterlimit:10;stroke-dasharray:none"><path
         d="M 167.5,0 C 167.5,92.5077 92.5077,167.5 0,167.5 -92.5077,167.5 -167.5,92.5077 -167.5,0"
         style="fill:none;stroke:#000000;stroke-width:2.36220475;stroke-linecap:round;stroke-linejoin:round;stroke-miterlimit:10;stroke-dasharray:none;stroke-opacity:1"
         id="path130" /></g><path
       d="m 10924,7137 v 352"
       style="fill:none;stroke:#000000;stroke-width:2.36220475;stroke-linecap:round;stroke-linejoin:round;stroke-miterlimit:10;stroke-dasharray:none;stroke-opacity:1"
       id="path132" /><path
       d="M 296,7536 H 109"
       style="fill:none;stroke:#000000;stroke-width:2.36220475;stroke-linecap:round;stroke-linejoin:round;stroke-miterlimit:10;stroke-dasharray:none;stroke-opacity:1"
       id="path134" /><g
       id="g136"
       transform="rotate(-90,4000.5,3704)"
       style="stroke-width:2.36220475;stroke-miterlimit:10;stroke-dasharray:none"><path
         d="M 167.5,0 C 167.5,92.5077 92.5077,167.5 0,167.5 -92.5077,167.5 -167.5,92.5077 -167.5,0"
         style="fill:none;stroke:#000000;stroke-width:2.36220475;stroke-linecap:round;stroke-linejoin:round;stroke-miterlimit:10;stroke-dasharray:none;stroke-opacity:1"
         id="path138" /></g><path
       d="M 865,9358 H 109"
       style="fill:none;stroke:#000000;stroke-width:2.36220475;stroke-linecap:round;stroke-linejoin:round;stroke-miterlimit:10;stroke-dasharray:none;stroke-opacity:1"
       id="path140" /><g
       id="g142"
       transform="rotate(180,432.75,4749.75)"
       style="stroke-width:2.36220475;stroke-miterlimit:10;stroke-dasharray:none"><path
         d="M 0,141.5 C -78.14829,141.5 -141.5,78.14829 -141.5,0"
         style="fill:none;stroke:#000000;stroke-width:2.36220475;stroke-linecap:round;stroke-linejoin:round;stroke-miterlimit:10;stroke-dasharray:none;stroke-opacity:1"
         id="path144" /></g><path
       d="M 1007,11578 V 9499"
       style="fill:none;stroke:#000000;stroke-width:2.36220475;stroke-linecap:round;stroke-linejoin:round;stroke-miterlimit:10;stroke-dasharray:none;stroke-opacity:1"
       id="path146" /></g></svg>
